<svg xmlns="http://www.w3.org/2000/svg" height="150" viewBox="0 0 2232 2500"><path fill="#a4c639" d="M1824.47 713.73c.5 5.9.72 11.9.72 17.95v1014.19c0 109.06-86.33 196.94-193.52 196.94h-7.63v401.15c0 86.18-69.86 156.03-156.05 156.03s-156.03-69.85-156.03-156.03v-401.15H920.04v401.15c0 86.18-69.86 156.03-156.05 156.03s-156.03-69.85-156.03-156.03v-401.15h-7.66c-107.17 0-193.51-87.87-193.51-196.94V731.67c0-6.05.45-12.03.96-17.95s1416.7 0 1416.7 0ZM156.09 803.98C69.9 803.98.03 873.86.04 960.04v669.39c0 86.17 69.86 156.03 156.05 156.03s156.03-69.86 156.03-156.05V960.03c0-86.18-69.86-156.05-156.03-156.05Zm1919.85 0c-86.18 0-156.05 69.88-156.05 156.06v669.39c0 86.17 69.86 156.03 156.05 156.03s156.03-69.86 156.03-156.05V960.03c0-86.18-69.86-156.05-156.03-156.05ZM1819.67 647.1c-2.1-150.5-66.65-287.9-172.17-393.54l132.16-228.91c4.54-7.86 1.84-17.91-6.02-22.45-7.86-4.54-17.91-1.85-22.45 6.02l-128.21 222.06c-110.96-100.2-260.86-167.59-428.57-183.77h-156.82C869.89 62.68 720 130.07 609.03 230.26L480.83 8.22C476.29.36 466.24-2.33 458.38 2.2c-7.86 4.54-10.56 14.59-6.02 22.45l132.15 228.89C478.98 359.18 414.42 496.59 412.33 647.1h1407.33Z"/><path fill="#fff" d="M906.38 367.93c.13 43.54-35.91 78.95-80.5 79.07-44.57.11-80.82-35.09-80.95-78.63v-.44c-.12-43.56 35.92-78.95 80.5-79.07 44.57-.12 80.82 35.06 80.95 78.63v.44Zm602.62 0c.13 43.54-35.91 78.95-80.5 79.07-44.57.11-80.82-35.09-80.95-78.63v-.44c-.12-43.56 35.92-78.95 80.5-79.07 44.57-.12 80.82 35.06 80.95 78.63v.44Z"/></svg>
