<svg xmlns="http://www.w3.org/2000/svg" viewBox="0 0 32 32"><title>iconbank</title><g id="book"><path d="M2.5,5H14.17a2,2,0,0,1,1.42.59L16,6l.41-.41A2,2,0,0,1,17.83,5H29.5a.5.5,0,0,1,.5.5v22a.51.51,0,0,1-.5.5H17.83a2,2,0,0,0-1.42.59h0a.59.59,0,0,1-.82,0h0A2,2,0,0,0,14.17,28H2.5a.47.47,0,0,1-.35-.15A.47.47,0,0,1,2,27.5V5.5A.5.5,0,0,1,2.5,5Z" style="fill:#ee8422"/><path d="M16,25H3l0,.11a2,2,0,0,1,0,1.78L3,27H15a1,1,0,0,1,1,1h0V25Z" style="fill:#d9d9d9"/><path d="M16,5a1,1,0,0,0-1-1H3V25H15a1,1,0,0,1,1,1h0Z" style="fill:#fff"/><rect x="5" y="6" width="9" height="1" style="fill:#ffbc00"/><rect x="5" y="8" width="9" height="1" style="fill:#ffbc00"/><rect x="5" y="10" width="9" height="1" style="fill:#ffbc00"/><rect x="5" y="12" width="9" height="1" style="fill:#ffbc00"/><rect x="5" y="14" width="9" height="1" style="fill:#ffbc00"/><rect x="5" y="16" width="6.55" height="1" style="fill:#ffbc00"/><rect x="5" y="19" width="9" height="4" style="fill:#ffbc00"/><path d="M16,25H29l-.05.11a2,2,0,0,0,0,1.78L29,27H17a1,1,0,0,0-1,1h0V25Z" style="fill:#d9d9d9"/><path d="M16,5a1,1,0,0,1,1-1H29V25H17a1,1,0,0,0-1,1h0Z" style="fill:#fff"/><rect x="18" y="6" width="4" height="5" style="fill:#ffbc00"/><rect x="23" y="6" width="4" height="1" style="fill:#ffbc00"/><rect x="23" y="8" width="4" height="1" style="fill:#ffbc00"/><rect x="23" y="10" width="3" height="1" style="fill:#ffbc00"/><rect x="18" y="13" width="9" height="1" style="fill:#ffbc00"/><rect x="18" y="15" width="9" height="1" style="fill:#ffbc00"/><rect x="18" y="17" width="7.2" height="1" style="fill:#ffbc00"/><rect x="18" y="20" width="9" height="1" style="fill:#ffbc00"/><rect x="18" y="22" width="8.1" height="1" style="fill:#ffbc00"/></g></svg>