<svg xmlns="http://www.w3.org/2000/svg" width="200" height="44.15" viewBox="0 0 200 44.15">
  <g fill="none" fill-rule="evenodd">
    <path fill="#ffba00"
      d="M22.0718489,5.5 C14.1002853,5.487731 6.74348576,9.78130167 2.83332523,16.7280007 C-1.07683557,23.6746991 -0.930740773,32.1914969 3.21536813,39 L4.48226458,39 C8.77294589,34.7057891 18.5704421,24.9122651 21.2282822,22.2500134 C22.7618036,23.7822096 24.8625567,21.7176508 25.4726107,21.0462388 C25.1428647,20.7204654 24.7870744,20.3620258 24.4215729,19.9929904 C22.9648584,18.5424578 21.7129697,20.7637229 21.7129697,20.7637229 L18.5249758,17.5704326 C18.5249758,17.5704326 23.5016337,15.3010515 26.2084721,18.006563 C27.1796154,18.9777049 27.8157124,19.6133611 28.2390402,20.0371317 L31.9470383,16.3291353 C31.4991754,15.118315 31.9526419,13.7589051 33.0377278,13.0594358 C34.1228111,12.3599672 35.5481651,12.5082492 36.4660404,13.4160895 C37.3839112,14.3239295 37.5478511,15.7475703 36.8603506,16.840277 C36.1728484,17.9329823 34.8185066,18.4013605 33.6028373,17.9668324 L29.8851261,21.6814537 C30.3058073,22.1056653 30.939696,22.7408805 31.8989193,23.700545 C34.6106122,26.4073835 32.3319623,31.386249 32.3319623,31.386249 L29.1426419,28.1929569 C29.1426419,28.1929569 31.3617018,26.9419497 29.9116083,25.4883277 C29.5461055,25.1223848 29.1916403,24.7661515 28.8596842,24.435081 C28.1887163,25.048667 26.1228324,27.1494232 27.6563524,28.6794104 C25.9873177,30.3515395 21.5077039,34.8311528 17.3392987,39 L40.9265668,39 C45.0706703,32.1915036 45.2160009,23.6760715 41.30663,16.730129 C37.3972618,9.78418636 30.04237,5.49008174 22.0718511,5.5 L22.0718489,5.5 Z" />
    <path fill="#FFF"
      d="M74.1880769,14.8787418 C74.8788384,15.911794 75.2218932,17.1383296 75.1673268,18.3798458 L69.9465772,18.4412147 C70.007949,16.4262037 68.6949191,15.6628484 66.5271538,15.6628484 C64.2070627,15.6628484 62.98543,16.7008181 62.8026481,17.8915459 C62.6498916,19.0213469 63.107723,19.6928713 65.1536403,20.1202438 L68.6035272,20.7917669 C74.3125784,21.860199 74.2821146,25.5851463 73.9456936,27.8138415 C73.396027,31.478302 69.1214099,34.2562255 63.7470154,34.2562255 C59.2878517,34.2562255 54.9240569,32.1811719 55.1986713,27.4783024 L60.5717389,27.4473979 C60.6940321,29.2182551 62.1289104,30.2257633 64.2966821,30.2257633 C66.4339913,30.2257633 68.4185366,29.5542396 68.6626827,27.844308 C68.8763673,26.348501 67.2582692,25.798831 65.33465,25.4323862 L61.8547436,24.7617459 C58.5571744,24.1511484 56.6949219,22.0752113 57.1836612,18.5030259 C57.7942552,14.1983902 62.1284725,11.6032465 67.0450294,11.6032465 C70.4476781,11.6032465 72.9139039,12.9608611 74.1880769,14.8787418 L74.1880769,14.8787418 Z M106.33556,29.6160501 L108.991634,11.8765334 L103.831805,11.8765334 L100.50421,33.951591 L114.764691,33.9670434 L116.943053,29.6160523 L106.33556,29.6160501 Z M99.805295,21.6668214 C99.805295,29.280509 94.39426,34.269913 87.0719615,34.269913 C80.6569514,34.269913 75.926269,30.0579923 75.926269,23.9997136 C75.926269,16.8390057 81.4344356,11.59 88.9187599,11.59 C95.364679,11.59 99.805295,15.7370198 99.805295,21.6668214 L99.805295,21.6668214 Z M94.2953599,21.9855852 C94.2953599,18.3043488 91.8825582,15.633709 88.5275923,15.633709 C84.6423821,15.633709 81.43576,19.314504 81.43576,23.7767546 C81.43576,27.5882328 83.7902817,30.226646 87.1752734,30.226646 C87.7647206,30.2271276 88.3513652,30.1455487 88.9183188,29.9842573 C89.3841868,29.8511147 89.8336434,29.6661468 90.2582823,29.4328223 C90.7445561,29.1652944 91.1970715,28.8405454 91.6061761,28.4654951 C93.368636,26.7767283 94.3438246,24.4273734 94.2953599,21.9869108 L94.2953599,21.9855852 Z M132.812377,11.8765334 L137.20885,33.9515874 L132.109948,33.9515874 L131.226946,29.2500417 L123.929821,29.2500417 L121.607521,33.9515874 L116.447692,33.9515874 L126.10685,14.6601977 L127.499786,11.8787413 L132.812377,11.8765334 Z M130.705506,24.7604175 L129.425154,16.8526915 L125.73111,24.7604175 L130.705506,24.7604175 Z M192.598252,20.7948571 L189.148363,20.1233341 C187.102446,19.6959618 186.644614,19.0244384 186.797364,17.8946365 C186.980591,16.7025832 188.201779,15.6659391 190.522314,15.6659391 C192.689642,15.6659391 194.002666,16.4292942 193.941739,18.4443048 L199.162051,18.3829359 C199.315245,14.841656 196.292293,11.6054533 191.041073,11.6054533 C186.125398,11.6054533 181.790298,14.2005966 181.179704,18.5052324 C180.691409,22.0774176 182.553655,24.1533548 185.85078,24.7639502 L189.331131,25.435474 C191.25475,25.8019195 192.872855,26.3515893 192.659165,27.8473965 C192.415011,29.5573266 190.430466,30.2288509 188.293601,30.2288509 C186.125385,30.2288509 184.690505,29.2213472 184.568651,27.450485 L179.195145,27.4813906 C178.920527,32.1829353 183.286535,34.2593133 187.743935,34.2593133 C193.117441,34.2593133 197.391614,31.4809477 197.942614,27.8169316 C198.278603,25.5860248 198.307304,21.8610823 192.598252,20.7948571 L192.598252,20.7948571 Z M174.329785,11.8765334 L172.314778,25.4014798 C171.826483,28.5780766 169.934204,29.8897791 167.826929,29.8897791 C165.659158,29.8897791 164.193816,28.5767554 164.682124,25.4014798 L166.697119,11.8765334 L161.476378,11.8765334 L159.489624,25.0964023 C158.665339,30.6526927 160.466671,34.2557844 167.153198,34.2557844 C173.808832,34.2557844 176.739516,30.6526927 177.56423,25.1877924 L179.55054,11.8765334 L174.329785,11.8765334 Z M158.002195,18.7471732 C157.483436,22.1665984 155.651197,23.9069963 153.45474,25.0672602 L156.01765,33.9515874 L150.735968,33.9515874 L148.629124,25.8915425 L144.935082,25.8915425 L143.713894,33.9515874 L138.55408,33.9515874 L141.851649,11.8765334 L151.377039,11.8765334 C156.811471,11.8765334 158.612789,14.7780778 158.002195,18.7471732 L158.002195,18.7471732 Z M150.247676,15.7855863 L146.430905,15.7855863 L145.51523,21.9529137 L149.179683,21.9529137 C150.994986,21.9449813 152.529259,20.6056909 152.782332,18.8081013 C152.949066,18.0536857 152.75583,17.2646227 152.259383,16.6726137 C151.762924,16.0806047 151.019602,15.7528473 150.247676,15.7855863 L150.247676,15.7855863 Z" />
  </g>
</svg>
