<svg viewBox="0 0 45 45" xmlns="http://www.w3.org/2000/svg" xml:space="preserve"
  style="fill-rule:evenodd;clip-rule:evenodd;stroke-linejoin:round;stroke-miterlimit:2">
  <g transform="scale(.2207 1)">
    <path style="fill:none" d="M0 0h200v44.15H0z" />
    <clipPath id="a">
      <path d="M0 0h200v44.15H0z" />
    </clipPath>
    <g clip-path="url(#a)">
      <path
        d="M22.072 5.5A22.038 22.038 0 0 0 3.215 39h1.267c4.291-4.294 14.088-14.088 16.746-16.75 1.534 1.532 3.635-.532 4.245-1.204-.33-.326-.686-.684-1.051-1.053-1.457-1.451-2.709.771-2.709.771l-3.188-3.194s4.977-2.269 7.683.437l2.031 2.03 3.708-3.708a2.754 2.754 0 1 1 1.656 1.638l-3.718 3.714c.421.425 1.055 1.06 2.014 2.02 2.712 2.706.433 7.685.433 7.685l-3.189-3.193s2.219-1.251.769-2.705l-1.052-1.053c-.671.614-2.737 2.714-1.204 4.244-1.669 1.673-6.148 6.152-10.317 10.321h23.588A22.042 22.042 0 0 0 22.072 5.5Z"
        style="fill:#ffba00" transform="scale(4.53105 1)" />
    </g>
  </g>
</svg>
