<?xml version="1.0" encoding="UTF-8"?><svg id="b" xmlns="http://www.w3.org/2000/svg" viewBox="0 0 553 150">
  <rect x="0" y="0" width="553" height="150" rx="75" ry="75" fill="#fff" />
  <g id="c">
    <path
      d="M100,33.11c-27.57-.04-49.96,22.27-50,49.85-.01,9.19,2.51,18.2,7.28,26.04h2.87c9.72-9.73,31.91-31.91,37.94-37.94,3.47,3.47,8.23-1.21,9.62-2.73-.75-.74-1.55-1.55-2.38-2.39-3.3-3.29-6.14,1.75-6.14,1.75l-7.22-7.23s11.27-5.14,17.41,.99c2.2,2.2,3.64,3.64,4.6,4.6l8.4-8.4c-1.2-3.23,.45-6.82,3.69-8.02,3.23-1.2,6.82,.45,8.02,3.69,1.2,3.23-.45,6.82-3.69,8.02-1.37,.51-2.88,.52-4.26,.02l-8.42,8.41c.95,.96,2.39,2.4,4.56,4.57,6.14,6.13,.98,17.41,.98,17.41l-7.23-7.23s5.03-2.83,1.74-6.13c-.83-.83-1.63-1.64-2.38-2.39-1.52,1.39-6.2,6.15-2.73,9.62-3.78,3.79-13.93,13.94-23.38,23.38h53.43c14.34-23.55,6.87-54.27-16.69-68.61-7.84-4.77-16.84-7.29-26.02-7.28Z"
      fill="#ffab00" />
  </g>
  <path
    d="M218.03,57.8c1.57,2.36,2.34,5.1,2.22,7.93l-11.82,.14c.14-4.56-2.84-6.29-7.74-6.29-5.26,0-8.02,2.35-8.44,5.05-.35,2.56,.69,4.08,5.32,5.05l7.81,1.52c12.93,2.42,12.86,10.86,12.1,15.91-1.25,8.3-10.93,14.59-23.1,14.59-10.1,0-19.98-4.7-19.36-15.35l12.17-.07c.28,4.01,3.53,6.29,8.44,6.29s9.34-1.52,9.89-5.39c.48-3.39-3.18-4.63-7.54-5.46l-7.88-1.52c-7.47-1.38-11.69-6.09-10.58-14.18,1.38-9.75,11.2-15.63,22.34-15.63,7.7,0,13.29,3.08,16.18,7.42Zm72.81,33.38l6.02-40.18h-11.69l-7.54,50,32.3,.04,4.93-9.86h-24.02Zm-14.79-18.01c0,17.25-12.26,28.55-28.84,28.55-14.53,0-25.24-9.54-25.24-23.26,0-16.22,12.48-28.11,29.43-28.11,14.6,0,24.66,9.39,24.66,22.82Zm-12.48,.72c0-8.34-5.47-14.39-13.06-14.39-8.8,0-16.06,8.34-16.06,18.44,0,8.63,5.33,14.61,13,14.61,1.37,0,2.69-.19,3.95-.55,1.06-.3,2.07-.72,3.03-1.25,1.09-.6,2.12-1.34,3.05-2.19,3.73-3.4,6.09-8.68,6.09-14.68Zm87.24-22.89l9.96,50h-11.55l-2.01-10.65h-16.53l-5.26,10.65h-11.69l21.88-43.69,3.16-6.3h12.03Zm-4.77,29.18l-2.9-17.91-8.37,17.91h11.27Zm140.19-8.99l-7.81-1.52c-4.63-.97-5.67-2.49-5.32-5.05,.41-2.7,3.18-5.05,8.44-5.05,4.91,0,7.88,1.73,7.74,6.29l11.82-.14c.35-8.02-6.5-15.35-18.39-15.35-11.13,0-20.95,5.88-22.34,15.63-1.11,8.09,3.11,12.79,10.58,14.18l7.88,1.52c4.36,.83,8.02,2.07,7.54,5.46-.55,3.87-5.05,5.39-9.89,5.39s-8.16-2.28-8.44-6.29l-12.17,.07c-.62,10.65,9.27,15.35,19.36,15.35,12.17,0,21.85-6.29,23.1-14.59,.76-5.05,.83-13.48-12.1-15.91Zm-41.38-20.19l-4.56,30.63c-1.11,7.19-5.39,10.17-10.17,10.17s-8.23-2.97-7.12-10.17l4.56-30.63h-11.82l-4.5,29.94c-1.87,12.59,2.21,20.75,17.36,20.75s21.71-8.16,23.58-20.54l4.49-30.15h-11.82Zm-36.98,15.56c-1.18,7.74-5.32,11.69-10.3,14.31l5.81,20.12h-11.96l-4.77-18.26h-8.37l-2.77,18.26h-11.69l7.47-50h21.58c12.31,0,16.39,6.57,15.01,15.56Zm-17.56-6.71h-8.64l-2.07,13.97h8.3c4.22,0,7.61-3.18,8.16-7.12,.62-4.01-2.07-6.85-5.74-6.85Z"
    fill="#4a2c94" />
</svg>
